<?xml version="1.0" encoding="UTF-8"?>
<svg version="1.1" xmlns="http://www.w3.org/2000/svg" width="600" height="300">
<path d="M0 0 C99 0 198 0 300 0 C300 99 300 198 300 300 C201 300 102 300 0 300 C0 201 0 102 0 0 Z " fill="#FAFAFA" transform="translate(150,0)"/>
<path d="M0 0 C1.8984375 1.640625 1.8984375 1.640625 3.5625 3.375 C4.17351562 3.94734375 4.78453125 4.5196875 5.4140625 5.109375 C6.84564991 6.48213005 8.21288928 7.92157307 9.5625 9.375 C9.2325 6.405 8.9025 3.435 8.5625 0.375 C19.67003207 1.88966346 30.43645757 6.50880195 38.5625 14.375 C39.734375 16.98828125 39.734375 16.98828125 40.3125 19.6875 C40.53035156 20.63882813 40.74820313 21.59015625 40.97265625 22.5703125 C41.16730469 23.49585937 41.36195313 24.42140625 41.5625 25.375 C41.95227957 26.93902115 42.34731579 28.50175156 42.75 30.0625 C43.1521875 31.7021875 43.1521875 31.7021875 43.5625 33.375 C42.551875 32.59125 41.54125 31.8075 40.5 31 C36.36527601 27.8971012 32.10864677 24.99741465 27.8125 22.125 C27.16273193 21.68881348 26.51296387 21.25262695 25.84350586 20.80322266 C25.21968018 20.38862793 24.59585449 19.9740332 23.953125 19.546875 C23.39657227 19.1765918 22.84001953 18.80630859 22.26660156 18.42480469 C20.4309011 17.29392904 18.49095553 16.33922777 16.5625 15.375 C15.9025 18.675 15.2425 21.975 14.5625 25.375 C10.36363185 23.8652946 6.69581136 21.743251 2.9375 19.375 C2.36515625 19.01921875 1.7928125 18.6634375 1.203125 18.296875 C-1.37035315 16.69293978 -3.91422661 15.05718226 -6.4375 13.375 C-18.14333623 13.8839494 -28.76446385 19.17031375 -38.4375 25.375 C-37.4475 27.025 -36.4575 28.675 -35.4375 30.375 C-36.59378906 31.06335938 -36.59378906 31.06335938 -37.7734375 31.765625 C-38.77632813 32.37921875 -39.77921875 32.9928125 -40.8125 33.625 C-41.81023437 34.22828125 -42.80796875 34.8315625 -43.8359375 35.453125 C-46.3882103 37.33858779 -47.36226887 38.44726224 -48.4375 41.375 C-46.1275 41.705 -43.8175 42.035 -41.4375 42.375 C-41.27894531 42.96667969 -41.12039063 43.55835938 -40.95703125 44.16796875 C-39.02756565 50.70256772 -36.59395069 54.21937514 -30.875 58.125 C-26.62251708 60.30576047 -22.85304617 60.52766125 -18.09765625 60.65625 C-16.86982422 60.69363281 -15.64199219 60.73101562 -14.37695312 60.76953125 C-13.09755859 60.80433594 -11.81816406 60.83914062 -10.5 60.875 C-7.96994323 60.94403642 -5.43998492 61.01680712 -2.91015625 61.09375 C-1.78875244 61.12404297 -0.66734863 61.15433594 0.48803711 61.18554688 C3.27643649 61.35737233 5.84439238 61.74923038 8.5625 62.375 C1.55167274 53.73742308 1.55167274 53.73742308 -7.4375 47.375 C-9.22349829 47.29988792 -11.00982748 47.22881007 -12.796875 47.18530273 C-20.72595039 46.96193576 -26.64268957 45.80142699 -33.4375 41.375 C-29.01589055 36.56324854 -25.40506292 33.84356257 -18.875 32.8125 C-13.52823408 32.9363633 -9.07136943 35.83614243 -4.48828125 38.35546875 C-3.48152344 38.69191406 -2.47476563 39.02835938 -1.4375 39.375 C1.27082179 38.06693633 1.27082179 38.06693633 3.5625 36.375 C5.0475 36.87 5.0475 36.87 6.5625 37.375 C6.0675 38.365 6.0675 38.365 5.5625 39.375 C5.08331449 43.67747412 5.00451074 45.64611366 7.6796875 49.140625 C8.58976563 49.96046875 9.49984375 50.7803125 10.4375 51.625 C15.47937042 56.25030562 15.47937042 56.25030562 17.5625 59.375 C18.14515625 59.3028125 18.7278125 59.230625 19.328125 59.15625 C27.70760008 58.20763018 36.28046973 57.47420617 44.5625 59.375 C43.60988281 58.51777344 42.65726563 57.66054687 41.67578125 56.77734375 C40.40853721 55.62274362 39.14162791 54.46777601 37.875 53.3125 C37.24916016 52.75111328 36.62332031 52.18972656 35.97851562 51.61132812 C31.86673769 47.84399232 28.65591852 44.01808516 25.5625 39.375 C25.8925 38.715 26.2225 38.055 26.5625 37.375 C27.449375 38.07625 28.33625 38.7775 29.25 39.5 C32.34238651 41.75850954 32.34238651 41.75850954 35.1875 40.6875 C35.97125 40.254375 36.755 39.82125 37.5625 39.375 C38.88926508 39.01641484 40.22085921 38.6731424 41.5625 38.375 C43.125 39.875 43.125 39.875 44.5625 42.375 C44.20984122 44.36271311 43.85658502 46.35034286 43.4921875 48.3359375 C43.58741362 51.09749508 44.5566774 51.96783224 46.5 53.875 C48.0159375 55.1125 48.0159375 55.1125 49.5625 56.375 C50.2225 55.055 50.8825 53.735 51.5625 52.375 C61.08889169 64.49137943 67.00750436 78.46272883 70.5625 93.375 C70.89894531 94.59123047 70.89894531 94.59123047 71.2421875 95.83203125 C75.30219421 112.15548287 72.69171035 130.95754651 66.5625 146.375 C66.08039063 145.95347656 65.59828125 145.53195313 65.1015625 145.09765625 C64.46992188 144.54980469 63.83828125 144.00195312 63.1875 143.4375 C62.56101562 142.89222656 61.93453125 142.34695312 61.2890625 141.78515625 C59.60617666 140.30541376 59.60617666 140.30541376 57.5625 139.375 C57.54832031 139.92285156 57.53414062 140.47070312 57.51953125 141.03515625 C56.2003963 162.9613183 43.99787146 181.09911426 28.04296875 195.28125 C22.00839552 200.375 22.00839552 200.375 19.5625 200.375 C18.5725 196.415 17.5825 192.455 16.5625 188.375 C12.79679274 189.8812829 9.33972615 191.46353227 5.75 193.3125 C-11.44573736 201.9735883 -29.46096622 205.00502614 -48.375 200.625 C-49.40270508 200.38970581 -49.40270508 200.38970581 -50.45117188 200.1496582 C-55.50947116 198.87097804 -59.83378978 196.8234537 -64.4375 194.375 C-64.293125 193.42367187 -64.14875 192.47234375 -64 191.4921875 C-62.5934414 181.26960994 -62.21525004 171.12700107 -62.1875 160.8125 C-62.17847656 159.52907715 -62.16945313 158.2456543 -62.16015625 156.92333984 C-61.63961977 146.02439075 -61.63961977 146.02439075 -65.4375 136.375 C-65.91058594 137.04144531 -66.38367188 137.70789063 -66.87109375 138.39453125 C-86.04654338 165.12054779 -86.04654338 165.12054779 -95.4375 168.375 C-102.95298318 154.89896119 -103.61536802 140.37221173 -103.625 125.25 C-103.63724609 124.23035156 -103.64949219 123.21070313 -103.66210938 122.16015625 C-103.67414007 115.91221574 -103.02743042 110.42050619 -101.4375 104.375 C-102.40171875 104.7359375 -103.3659375 105.096875 -104.359375 105.46875 C-105.63529268 105.93783738 -106.91134129 106.40656873 -108.1875 106.875 C-109.13882813 107.23271484 -109.13882813 107.23271484 -110.109375 107.59765625 C-113.47036607 108.82301758 -115.80621587 109.375 -119.4375 109.375 C-117.84327242 90.24426903 -109.91623749 72.67998333 -98.4375 57.375 C-101.7375 57.045 -105.0375 56.715 -108.4375 56.375 C-104.71321423 41.47785693 -90.97103813 26.69830568 -78.4375 18.375 C-76.57388835 22.1022233 -77.54730242 26.70483154 -77.6953125 30.796875 C-77.31391266 36.09024247 -75.70791171 39.25231058 -71.75 42.75 C-70.986875 43.28625 -70.22375 43.8225 -69.4375 44.375 C-69.9325 43.281875 -70.4275 42.18875 -70.9375 41.0625 C-72.86778481 35.86273757 -73.20074042 30.86026631 -72.4375 25.375 C-70.50218627 21.50437254 -68.37766639 18.2918377 -64.4375 16.375 C-58.67603601 15.58183479 -54.46295134 16.28241456 -49.4375 19.375 C-52.41877544 14.24720625 -55.47103764 11.62230231 -60.4375 8.375 C-58.4541962 4.4083924 -52.06466933 3.27164281 -48.01171875 1.83984375 C-34.93345121 -2.50297144 -12.2838188 -7.89230179 0 0 Z " fill="#36013B" transform="translate(325.4375,69.625)"/>
<path d="M0 0 C46.86 0 93.72 0 142 0 C142 12.57530266 141.99116413 19.58424875 137.5625 30.4375 C137.14162109 31.53642578 136.72074219 32.63535156 136.28710938 33.76757812 C133.4936405 41.012719 133.4936405 41.012719 132 44 C128.18919655 42.62355543 125.09613186 40.86325974 121.76953125 38.55859375 C120.80208984 37.89279297 119.83464844 37.22699219 118.83789062 36.54101562 C117.34032227 35.49977539 117.34032227 35.49977539 115.8125 34.4375 C113.81969186 33.06021141 111.82623507 31.68386073 109.83203125 30.30859375 C108.95264893 29.69814209 108.0732666 29.08769043 107.16723633 28.45874023 C105.08027183 26.9866228 105.08027183 26.9866228 103 26 C103.2165625 27.14275391 103.2165625 27.14275391 103.4375 28.30859375 C104.57797374 34.65247896 105.21474302 40.55770944 105 47 C100.32644393 46.18720764 96.13646047 44.62516467 91.71875 42.9375 C89.14994477 42.05170509 86.67343752 41.46494566 84 41 C84.4846875 41.76441406 84.969375 42.52882812 85.46875 43.31640625 C100.50452331 67.3447286 100.50452331 67.3447286 102 78 C101.36835938 78.36609375 100.73671875 78.7321875 100.0859375 79.109375 C78.466486 92.19319291 64.71882037 110.57882885 52 132 C55.3 132.33 58.6 132.66 62 133 C60.6439103 136.6348796 58.9775355 140.03373317 57.18237305 143.47045898 C53.55933929 150.42457573 50.8057811 156.99165077 48.88671875 164.62109375 C48.59410156 165.40613281 48.30148438 166.19117188 48 167 C47.01 167.33 46.02 167.66 45 168 C44.34 175.26 43.68 182.52 43 190 C37.45328613 185.24567382 32.23162858 180.44619325 27.0625 175.3125 C26.28326172 174.55388672 25.50402344 173.79527344 24.70117188 173.01367188 C23.96576172 172.28341797 23.23035156 171.55316406 22.47265625 170.80078125 C21.80500244 170.14247314 21.13734863 169.48416504 20.44946289 168.8059082 C19 167 19 167 19 164 C26.92 164 34.84 164 43 164 C41.618125 162.288125 40.23625 160.57625 38.8125 158.8125 C38.03519531 157.84957031 37.25789063 156.88664063 36.45703125 155.89453125 C32.93442916 151.74469317 29.13382055 148.03374983 25 144.5 C17.33212373 137.83166067 10.47567068 130.31599455 4.0625 122.4375 C2.23525736 119.95349564 2.23525736 119.95349564 0 119 C0 79.73 0 40.46 0 0 Z " fill="#A6FF27" transform="translate(150,0)"/>
<path d="M0 0 C3.65750289 1.82875144 4.93598232 2.76897662 7.4375 5.75 C8.34435547 6.81734375 8.34435547 6.81734375 9.26953125 7.90625 C10.31530547 9.17156598 11.35595145 10.44117926 12.38671875 11.71875 C15.00257721 14.95350242 17.70851455 17.46808812 21 20 C23.3125 22.125 23.3125 22.125 25 24 C25 24.66 25 25.32 25 26 C25.639375 26.268125 26.27875 26.53625 26.9375 26.8125 C29 28 29 28 30 31 C30.87398437 31.433125 30.87398437 31.433125 31.765625 31.875 C34.77541054 33.3904165 36.51767586 35.49045913 38.75 38 C39.54921875 38.886875 40.3484375 39.77375 41.171875 40.6875 C43 43 43 43 43 45 C35.08 45 27.16 45 19 45 C21.45442576 49.0907096 23.36122065 51.59865733 26.66796875 54.86328125 C27.56064453 55.74951172 28.45332031 56.63574219 29.37304688 57.54882812 C30.30181641 58.46083984 31.23058594 59.37285156 32.1875 60.3125 C33.1378315 61.2527888 34.087706 62.19353971 35.03710938 63.13476562 C37.3535831 65.42772185 39.67619978 67.71446914 42 70 C43.485 59.605 43.485 59.605 45 49 C45.99 49.495 45.99 49.495 47 50 C46.01 56.93 45.02 63.86 44 71 C48.42990305 69.36161315 48.42990305 69.36161315 52.85449219 67.70898438 C56.16073715 66.50706036 58.42947796 66 62 66 C61.97905273 66.8343457 61.95810547 67.66869141 61.93652344 68.52832031 C61.03928348 101.16389593 61.03928348 101.16389593 73 131 C74.485 131.99 74.485 131.99 76 133 C86.48870085 125.86130246 95.19587454 117.85361063 102.72265625 107.6171875 C103.14417969 107.08351563 103.56570312 106.54984375 104 106 C104.33 106 104.66 106 105 106 C105.76220852 120.14320261 103.31681505 134.25955125 98.76953125 147.62890625 C97.89710124 149.9015798 97.89710124 149.9015798 98 152 C112.82009707 160.01816802 126.14282662 163.44730579 143 164 C143 169.61 143 175.22 143 181 C95.81 181 48.62 181 0 181 C0 121.27 0 61.54 0 0 Z " fill="#07F8BD" transform="translate(150,119)"/>
<path d="M0 0 C2.37564933 2.20487094 4.02824522 4.45861854 5.69921875 7.23046875 C6.18583984 8.03291016 6.67246094 8.83535156 7.17382812 9.66210938 C7.67333984 10.49548828 8.17285156 11.32886719 8.6875 12.1875 C9.19861328 13.03248047 9.70972656 13.87746094 10.23632812 14.74804688 C11.49475268 16.82973983 12.74914166 18.91375492 14 21 C16.81794753 19.72711064 18.76451047 18.45938649 20.83984375 16.171875 C21.34580078 15.61886719 21.85175781 15.06585938 22.37304688 14.49609375 C23.14745117 13.63177734 23.14745117 13.63177734 23.9375 12.75 C24.44990234 12.18925781 24.96230469 11.62851562 25.49023438 11.05078125 C28.00614027 8.28232572 30.44855321 5.47434194 32.81640625 2.578125 C33.53699219 1.72734375 34.25757813 0.8765625 35 0 C35.33 0 35.66 0 36 0 C36.99 11.385 36.99 11.385 38 23 C41.11772314 19.4760179 41.11772314 19.4760179 44.22167969 15.93994141 C46.60464057 13.2826201 48.6502144 11.29921591 52 10 C51.72285156 11.12277344 51.44570313 12.24554688 51.16015625 13.40234375 C49.33083756 20.92185053 47.56297006 28.25916162 47 36 C46.21496094 35.86722656 45.42992187 35.73445313 44.62109375 35.59765625 C43.57050781 35.42105469 42.51992188 35.24445312 41.4375 35.0625 C40.40496094 34.88847656 39.37242187 34.71445312 38.30859375 34.53515625 C37.21675781 34.35855469 36.12492187 34.18195312 35 34 C33.91589844 33.81824219 32.83179688 33.63648438 31.71484375 33.44921875 C7.43885993 30.51363711 -13.98368326 36.22944523 -36 46 C-36.67095703 44.42412109 -36.67095703 44.42412109 -37.35546875 42.81640625 C-40.56733192 35.33660292 -43.78854131 27.98675175 -48 21 C-41.17469581 22.92404718 -36.61483679 26.7546356 -31 31 C-32.485 19.615 -32.485 19.615 -34 8 C-27.93723631 11.36820205 -22.52215654 14.61203764 -17.0625 18.75 C-12.70894917 22.15434095 -12.70894917 22.15434095 -8 25 C-7.76216797 24.05253906 -7.76216797 24.05253906 -7.51953125 23.0859375 C-5.46381355 15.20379338 -2.81997863 7.63512001 0 0 Z " fill="#35033A" transform="translate(293,28)"/>
<path d="M0 0 C2.04563599 1.26220093 4.04402816 2.60287726 6 4 C7.98966698 5.02040448 9.98838736 6.0235705 12 7 C13.51442308 18.98076923 13.51442308 18.98076923 10.125 23.5 C7.51675958 25.58659234 4.88242372 27.31368408 2 29 C1.10410156 29.57492188 0.20820313 30.14984375 -0.71484375 30.7421875 C-6.81386586 34.57585854 -11.62634988 37.34296047 -19 37 C-20.45951119 34.41732587 -21.91764881 31.83389259 -23.375 29.25 C-23.7875 28.52039063 -24.2 27.79078125 -24.625 27.0390625 C-25.02460938 26.33007812 -25.42421875 25.62109375 -25.8359375 24.890625 C-26.20251465 24.24125977 -26.5690918 23.59189453 -26.94677734 22.92285156 C-27.29434082 22.28831055 -27.6419043 21.65376953 -28 21 C-28.37463379 20.32163086 -28.74926758 19.64326172 -29.13525391 18.94433594 C-30 17 -30 17 -30 14 C-27.74099565 12.19580853 -25.54528637 10.62198369 -23.125 9.0625 C-22.44260254 8.61664551 -21.76020508 8.17079102 -21.05712891 7.71142578 C-14.59724625 3.58288358 -7.92807723 -0.65531919 0 0 Z " fill="#FAF9FA" transform="translate(345,139)"/>
<path d="M0 0 C6.67839196 5.56532663 6.67839196 5.56532663 9 8.375 C12.48860542 12.46695624 16.13428188 16.39194529 19.8125 20.3125 C24.18543412 24.98287296 28.55520199 29.65535292 32.875 34.375 C33.67679688 35.24898438 34.47859375 36.12296875 35.3046875 37.0234375 C37 39 37 39 37 40 C24.79 40 12.58 40 0 40 C0 26.8 0 13.6 0 0 Z " fill="#01FBA2" transform="translate(150,259)"/>
<path d="M0 0 C3.01629854 0.89455053 4.09718145 1.68659745 5.93359375 4.21484375 C8.14633797 8.92210487 8.15052492 12.85474835 6.62109375 17.77734375 C4.36203162 22.88732562 1.45176861 27.69129056 -2.37890625 31.77734375 C-3.36890625 32.10734375 -4.35890625 32.43734375 -5.37890625 32.77734375 C-5.57806641 31.62105469 -5.57806641 31.62105469 -5.78125 30.44140625 C-5.95785156 29.43851563 -6.13445312 28.435625 -6.31640625 27.40234375 C-6.49042969 26.40460938 -6.66445313 25.406875 -6.84375 24.37890625 C-7.25602687 21.80824719 -7.25602687 21.80824719 -8.37890625 19.77734375 C-9.11496094 20.21046875 -9.85101563 20.64359375 -10.609375 21.08984375 C-11.58519531 21.64671875 -12.56101562 22.20359375 -13.56640625 22.77734375 C-14.52933594 23.33421875 -15.49226563 23.89109375 -16.484375 24.46484375 C-19.42779368 25.79951133 -21.19770682 26.05649836 -24.37890625 25.77734375 C-25.38399426 23.98852639 -26.38283361 22.19619679 -27.37890625 20.40234375 C-28.21421875 18.90574219 -28.21421875 18.90574219 -29.06640625 17.37890625 C-30.37890625 14.77734375 -30.37890625 14.77734375 -30.37890625 12.77734375 C-29.78464844 12.58140625 -29.19039063 12.38546875 -28.578125 12.18359375 C-23.29769556 10.27836882 -19.35460261 8.09909447 -15.00390625 4.52734375 C-10.03166888 0.76991438 -6.23676307 -0.46228283 0 0 Z " fill="#F9F9FA" transform="translate(362.37890625,173.22265625)"/>
<path d="M0 0 C11.22 0 22.44 0 34 0 C34 12.84535505 33.90650396 19.94284287 29 31 C28.3709375 30.36835938 27.741875 29.73671875 27.09375 29.0859375 C24.58665665 26.57707859 22.05957736 24.08900895 19.53125 21.6015625 C17.85403749 19.94283894 16.17695772 18.28398115 14.5 16.625 C13.65824219 15.8 12.81648438 14.975 11.94921875 14.125 C11.13066406 13.31289062 10.31210937 12.50078125 9.46875 11.6640625 C8.73076172 10.93654785 7.99277344 10.2090332 7.23242188 9.45947266 C4.56472818 6.52045841 2.30703934 3.22985508 0 0 Z " fill="#CEFF0F" transform="translate(258,0)"/>
<path d="M0 0 C2.73905685 6.246209 3.46657858 11.33800957 3.375 18.125 C3.38660156 18.99253906 3.39820313 19.86007813 3.41015625 20.75390625 C3.38650039 25.93453851 2.80210955 29.47807719 0 34 C-0.41894531 33.41863281 -0.83789062 32.83726562 -1.26953125 32.23828125 C-2.93084152 29.99324252 -2.93084152 29.99324252 -4.82421875 28.16796875 C-9.23180003 23.4831811 -10.60781006 19.76681456 -10.9375 13.3125 C-10.6594169 6.87131941 -10.6594169 6.87131941 -8.26171875 3.703125 C-5.61176421 1.66842499 -3.41204385 0 0 0 Z " fill="#F9F8F9" transform="translate(375,140)"/>
<path d="M0 0 C0.66 0.33 1.32 0.66 2 1 C1.01 7.93 0.02 14.86 -1 22 C3.42990305 20.36161315 3.42990305 20.36161315 7.85449219 18.70898438 C11.16073715 17.50706036 13.42947796 17 17 17 C16.67 24.59 16.34 32.18 16 40 C15.01 39.34 14.02 38.68 13 38 C13 37.34 13 36.68 13 36 C12.45859375 35.77183594 11.9171875 35.54367188 11.359375 35.30859375 C5.97610081 32.32283737 1.68401618 27.87060486 -2 23 C-3.11208178 19.10494741 -2.71733672 15.94804871 -2 12 C-1.83886719 10.89140625 -1.67773438 9.7828125 -1.51171875 8.640625 C-1.06657517 5.74549272 -0.56183684 2.8743974 0 0 Z " fill="#18FE78" transform="translate(195,168)"/>
<path d="M0 0 C0.33 0 0.66 0 1 0 C1.21133202 7.04440079 1.07965362 13.24112575 -1 20 C-2.34173403 19.07456291 -3.67320159 18.13422595 -5 17.1875 C-5.7425 16.66542969 -6.485 16.14335937 -7.25 15.60546875 C-8.11625 14.81076172 -8.11625 14.81076172 -9 14 C-9 9.83878671 -7.20445395 8.46553396 -4.5625 5.3125 C-3.73878906 4.31863281 -2.91507813 3.32476562 -2.06640625 2.30078125 C-1.38449219 1.54152344 -0.70257813 0.78226563 0 0 Z " fill="#11FCA3" transform="translate(254,225)"/>
<path d="M0 0 C1.36421031 2.72842061 0.87807211 4.60953318 0.5625 7.625 C0.46066406 8.62789062 0.35882813 9.63078125 0.25390625 10.6640625 C0.17011719 11.43492188 0.08632812 12.20578125 0 13 C-0.33 13 -0.66 13 -1 13 C-1.33 10.36 -1.66 7.72 -2 5 C-6.18423892 8.50897269 -10.19588166 12.08060535 -14 16 C-14.66 15.67 -15.32 15.34 -16 15 C-11.24156903 9.10933786 -6.12530771 4.44466773 0 0 Z " fill="#311238" transform="translate(247,88)"/>
<path d="M0 0 C0.33 0.66 0.66 1.32 1 2 C-6.92 2 -14.84 2 -23 2 C-23.33 2.99 -23.66 3.98 -24 5 C-24.66 3.68 -25.32 2.36 -26 1 C-17.42 0.67 -8.84 0.34 0 0 Z " fill="#3DFE66" transform="translate(192,162)"/>
<path d="M0 0 C0.33 0 0.66 0 1 0 C1 5.94 1 11.88 1 18 C0.01 17.01 -0.98 16.02 -2 15 C-1.89114329 12.30800294 -1.64673731 9.94267733 -1.1875 7.3125 C-1.07857422 6.61060547 -0.96964844 5.90871094 -0.85742188 5.18554688 C-0.58659667 3.4546206 -0.29525563 1.7269268 0 0 Z " fill="#01FE7F" transform="translate(210,190)"/>
<path d="M0 0 C1.36421031 2.72842061 0.87807211 4.60953318 0.5625 7.625 C0.46066406 8.62789062 0.35882813 9.63078125 0.25390625 10.6640625 C0.17011719 11.43492188 0.08632812 12.20578125 0 13 C-0.33 13 -0.66 13 -1 13 C-1.1953125 10.98177083 -1.390625 8.96354167 -1.5859375 6.9453125 C-1.86374749 4.77331755 -1.86374749 4.77331755 -4 3 C-2.68 2.01 -1.36 1.02 0 0 Z " fill="#58435D" transform="translate(247,88)"/>
<path d="M0 0 C0.33 1.32 0.66 2.64 1 4 C-1.97 6.475 -1.97 6.475 -5 9 C-5.66 8.67 -6.32 8.34 -7 8 C-4.69 5.36 -2.38 2.72 0 0 Z " fill="#37153D" transform="translate(328,28)"/>
</svg>
